HIERARCHY
ROOT Hips
{
	OFFSET -0.179506 -22.333345 2.821913
	CHANNELS 6 Xposition Yposition Zposition Zrotation Yrotation Xrotation 
	JOINT LeftUpLeg
	{
		OFFSET 6.951974 -9.140623 -0.681533
		CHANNELS 3 Zrotation Yrotation Xrotation
		JOINT LeftLeg
		{
			OFFSET 3.427654 -37.519855 -0.449580
			CHANNELS 3 Zrotation Yrotation Xrotation
			JOINT LeftFoot
			{
				OFFSET -1.359570 -39.796059 -4.369333
				CHANNELS 3 Zrotation Yrotation Xrotation
				JOINT LeftToe
				{
					OFFSET 2.635814 -5.579078 11.928840
					CHANNELS 3 Zrotation Yrotation Xrotation
					End Site
					{
						OFFSET 0.000000 0.000000 0.000000
					}
				}
			}
		}
	}
	JOINT RightUpLeg
	{
		OFFSET -6.767048 -9.052170 -0.431982
		CHANNELS 3 Zrotation Yrotation Xrotation
		JOINT RightLeg
		{
			OFFSET -3.829005 -38.256897 -0.885003
			CHANNELS 3 Zrotation Yrotation Xrotation
			JOINT RightFoot
			{
				OFFSET 1.577377 -39.841461 -4.231180
				CHANNELS 3 Zrotation Yrotation Xrotation
				JOINT RightToe
				{
					OFFSET -2.537174 -4.814398 12.334795
					CHANNELS 3 Zrotation Yrotation Xrotation
					End Site
					{
						OFFSET 0.000000 0.000000 0.000000
					}
				}
			}
		}
	}
	JOINT Spine
	{
		OFFSET -0.253288 10.896323 -2.669631
		CHANNELS 3 Zrotation Yrotation Xrotation
		JOINT Spine1
		{
			OFFSET 0.548704 13.518043 0.109247
			CHANNELS 3 Zrotation Yrotation Xrotation
			JOINT Spine2
			{
				OFFSET 0.145701 5.292222 2.542457
				CHANNELS 3 Zrotation Yrotation Xrotation
				JOINT Neck
				{
					OFFSET -0.277840 21.387037 -4.285703
					CHANNELS 3 Zrotation Yrotation Xrotation
					JOINT Head
					{
						OFFSET 0.515184 6.496960 5.134897
						CHANNELS 3 Zrotation Yrotation Xrotation
						End Site
						{
							OFFSET 0.000000 0.000000 0.000000
						}
					}
				}
				JOINT LeftShoulder
				{
					OFFSET 7.884473 12.174932 -3.408961
					CHANNELS 3 Zrotation Yrotation Xrotation
					JOINT LeftArm
					{
						OFFSET 9.097692 3.046888 -0.886815
						CHANNELS 3 Zrotation Yrotation Xrotation
						JOINT LeftForeArm
						{
							OFFSET 25.961220 -1.277207 -2.745643
							CHANNELS 3 Zrotation Yrotation Xrotation
							JOINT LeftHand
							{
								OFFSET 24.923361 0.898606 -0.117091
								CHANNELS 3 Zrotation Yrotation Xrotation
								End Site
								{
									OFFSET 0.000000 0.000000 0.000000
								}
							}
						}
					}
				}
				JOINT RightShoulder
				{
					OFFSET -8.175920 11.883285 -3.861528
					CHANNELS 3 Zrotation Yrotation Xrotation
					JOINT RightArm
					{
						OFFSET -9.601238 3.255117 -0.914307
						CHANNELS 3 Zrotation Yrotation Xrotation
						JOINT RightForeArm
						{
							OFFSET -25.374195 -1.332924 -2.140099
							CHANNELS 3 Zrotation Yrotation Xrotation
							JOINT RightHand
							{
								OFFSET -25.529810 0.777228 -0.555919
								CHANNELS 3 Zrotation Yrotation Xrotation
								End Site
								{
									OFFSET 0.000000 0.000000 0.000000
								}
							}
						}
					}
				}
			}
		}
	}
}
MOTION
Frames: 5
Frame Time: 0.033333
-0.179506 102.853783 2.821913 -8.989327 78.463357 -6.990330 -3.473235 5.471737 3.960864 -1.423371 2.906459 -6.536343 -0.653605 8.402921 -6.734348 2.131620 2.226782 3.044980 -0.930471 -3.559761 0.626233 -2.130029 -5.116028 -2.358564 4.468847 -8.324496 -2.823076 3.462713 -3.065117 0.891261 -1.506908 1.824920 -0.505708 4.158491 -4.938871 8.572932 -0.835431 -0.217721 -5.095288 -0.213541 2.207012 1.302408 5.460553 7.065822 -6.365741 -17.407311 1.724533 2.011594 -43.381727 -2.165962 14.802455 -10.537577 -39.489530 32.101822 -11.691405 -10.695833 12.023583 10.355351 1.222909 0.590392 45.166668 -2.195827 18.840381 18.513817 59.403946 39.829930 10.082293 8.439421 3.718160 
-0.131056 102.846268 2.758422 -9.026320 78.717950 -7.037104 -3.581586 5.559877 4.188814 -1.373813 3.075892 -6.924273 -0.756329 8.115894 -6.596109 2.084858 2.264782 3.067361 -0.990559 -3.734107 0.653316 -2.145744 -5.358145 -2.302800 4.576882 -8.288924 -2.874268 3.427756 -3.083525 0.925475 -1.576036 1.814584 -0.451221 4.192830 -4.949732 8.587522 -0.810013 -0.221917 -5.145071 -0.214660 2.056215 1.227072 5.536797 7.051648 -6.378879 -17.399879 1.590654 2.005644 -43.402085 -2.185513 15.010342 -10.713858 -39.548262 32.436530 -12.032726 -10.703868 12.179519 10.308653 1.305923 0.613877 44.976602 -2.351149 18.873401 18.771513 59.322360 39.865469 10.522966 8.517262 3.690473 
-0.086452 102.839272 2.700221 -8.991745 78.964342 -7.012993 -3.698325 5.610263 4.380909 -1.316998 3.175166 -7.242731 -0.844984 7.887311 -6.485204 2.037042 2.307173 3.075994 -1.076372 -3.838658 0.618583 -2.153247 -5.504288 -2.124544 4.581234 -8.295729 -2.947881 3.399895 -3.104587 0.957383 -1.629305 1.791051 -0.373713 4.223375 -4.977035 8.582292 -0.801430 -0.236804 -5.198863 -0.268384 1.911159 1.207636 5.605408 7.061696 -6.431079 -17.405696 1.457972 2.053439 -43.320199 -2.168868 15.229992 -11.011801 -39.720709 32.824047 -12.335213 -10.717999 12.363284 10.298880 1.409159 0.678076 44.640382 -2.529599 18.889869 19.457012 59.391555 40.340442 10.856590 8.663426 3.645619 
-0.104183 102.832512 2.676341 -8.922010 79.150549 -6.974225 -3.765918 5.594347 4.438596 -1.271249 3.177384 -7.332320 -0.878355 7.774509 -6.462240 2.003781 2.313285 3.069420 -1.129190 -3.909784 0.615519 -2.154552 -5.530559 -2.047986 4.552786 -8.362180 -2.997445 3.374067 -3.094036 0.978968 -1.675803 1.796045 -0.326609 4.250237 -5.004746 8.636347 -0.790696 -0.248888 -5.263005 -0.299572 1.794264 1.171548 5.637605 7.005616 -6.468576 -17.446969 1.318180 2.061570 -43.196887 -2.197927 15.414772 -11.226762 -39.821324 33.186980 -12.598918 -10.760139 12.607949 10.376111 1.485291 0.731559 44.302691 -2.605266 18.917866 20.036262 59.505430 40.784076 11.188421 8.792171 3.643249 
-0.125565 102.825577 2.690363 -8.685115 79.283536 -6.754779 -3.835912 5.576839 4.500785 -1.212815 3.102638 -7.461040 -0.888104 7.717178 -6.391942 1.949070 2.329355 3.073620 -1.158721 -3.957989 0.611219 -2.192337 -5.539266 -2.010392 4.510810 -8.417304 -3.063937 3.350735 -3.098530 0.991991 -1.709280 1.804941 -0.262941 4.277305 -5.038945 8.606110 -0.762085 -0.268142 -5.289527 -0.341150 1.729249 1.132302 5.658748 6.994196 -6.410738 -17.476149 1.213004 2.080115 -43.094747 -2.210320 15.566789 -11.428528 -39.840376 33.465678 -12.658755 -10.836835 12.755898 10.480702 1.529378 0.770343 43.974944 -2.694798 18.955431 20.629773 59.735211 41.297438 11.357377 8.888773 3.693323 
